REM DIRINDEX 1\2,1\3
REM DIRNAME folder01,folder02,folder03
TITLE ""
FILE "DISC1Track30.mp3" MP3
  TRACK 01 AUDIO
    TITLE "0:"
    INDEX 01 00:00:00
  TRACK 02 AUDIO
    TITLE "3:cjc133_1336"
    INDEX 01 00:00:17
  TRACK 03 AUDIO
    TITLE "0:"
    INDEX 01 00:01:34
  TRACK 04 AUDIO
    TITLE "2:cjc133_1337"
    INDEX 01 00:02:12
  TRACK 05 AUDIO
    TITLE "2:cjc133_1338"
    INDEX 01 00:05:65
  TRACK 06 AUDIO
    TITLE "2:cjc133_1339"
    INDEX 01 00:09:26
  TRACK 07 AUDIO
    TITLE "0:"
    INDEX 01 00:12:01
  TRACK 08 AUDIO
    TITLE "2:cjc133_1340"
    INDEX 01 00:12:52
  TRACK 09 AUDIO
    TITLE "2:cjc133_1341"
    INDEX 01 00:14:33
  TRACK 10 AUDIO
    TITLE "2:cjc133_1342"
    INDEX 01 00:18:01
  TRACK 11 AUDIO
    TITLE "0:"
    INDEX 01 00:20:51
  TRACK 12 AUDIO
    TITLE "2:cjc133_1343"
    INDEX 01 00:21:25
  TRACK 13 AUDIO
    TITLE "2:cjc133_1344"
    INDEX 01 00:23:03
  TRACK 14 AUDIO
    TITLE "2:cjc133_1345"
    INDEX 01 00:26:67
  TRACK 15 AUDIO
    TITLE "0:"
    INDEX 01 00:29:70
  TRACK 16 AUDIO
    TITLE "2:cjc133_1346"
    INDEX 01 00:30:48
  TRACK 17 AUDIO
    TITLE "2:cjc133_1347"
    INDEX 01 00:33:03
  TRACK 18 AUDIO
    TITLE "2:cjc133_1348"
    INDEX 01 00:36:58
  TRACK 19 AUDIO
    TITLE "0:"
    INDEX 01 00:39:43
  TRACK 20 AUDIO
    TITLE "2:cjc133_1349"
    INDEX 01 00:40:21
  TRACK 21 AUDIO
    TITLE "2:cjc133_1350"
    INDEX 01 00:41:67
  TRACK 22 AUDIO
    TITLE "2:cjc133_1351"
    INDEX 01 00:45:53
  TRACK 23 AUDIO
    TITLE "0:"
    INDEX 01 00:48:40
  TRACK 24 AUDIO
    TITLE "2:cjc133_1352"
    INDEX 01 00:49:20
  TRACK 25 AUDIO
    TITLE "2:cjc133_1353"
    INDEX 01 00:52:49
  TRACK 26 AUDIO
    TITLE "2:cjc133_1354"
    INDEX 01 00:55:46
  TRACK 27 AUDIO
    TITLE "0:"
    INDEX 01 00:57:45
  TRACK 28 AUDIO
    TITLE "2:cjc133_1355"
    INDEX 01 00:58:22
  TRACK 29 AUDIO
    TITLE "2:cjc133_1356"
    INDEX 01 01:00:39
  TRACK 30 AUDIO
    TITLE "2:cjc133_1357"
    INDEX 01 01:03:12
  TRACK 31 AUDIO
    TITLE "0:"
    INDEX 01 01:04:64
  TRACK 32 AUDIO
    TITLE "2:cjc133_1358"
    INDEX 01 01:05:42
  TRACK 33 AUDIO
    TITLE "2:cjc133_1359"
    INDEX 01 01:07:06
  TRACK 34 AUDIO
    TITLE "2:cjc133_1360"
    INDEX 01 01:09:44
  TRACK 35 AUDIO
    TITLE "0:"
    INDEX 01 01:11:17
  TRACK 36 AUDIO
    TITLE "2:cjc133_1361"
    INDEX 01 01:11:66
  TRACK 37 AUDIO
    TITLE "2:cjc133_1362"
    INDEX 01 01:13:24
  TRACK 38 AUDIO
    TITLE "2:cjc133_1363"
    INDEX 01 01:16:01
  TRACK 39 AUDIO
    TITLE "0:"
    INDEX 01 01:17:55
  TRACK 40 AUDIO
    TITLE "2:cjc133_1364"
    INDEX 01 01:18:33
  TRACK 41 AUDIO
    TITLE "2:cjc133_1365"
    INDEX 01 01:19:70
  TRACK 42 AUDIO
    TITLE "2:cjc133_1366"
    INDEX 01 01:22:68
  TRACK 43 AUDIO
    TITLE "0:"
    INDEX 01 01:25:04
  TRACK 44 AUDIO
    TITLE "2:cjc133_1367"
    INDEX 01 01:25:57
  TRACK 45 AUDIO
    TITLE "2:cjc133_1368"
    INDEX 01 01:28:39
  TRACK 46 AUDIO
    TITLE "2:cjc133_1369"
    INDEX 01 01:31:18
  TRACK 47 AUDIO
    TITLE "0:"
    INDEX 01 01:32:74
  TRACK 48 AUDIO
    TITLE "2:cjc133_1370"
    INDEX 01 01:33:50
  TRACK 49 AUDIO
    TITLE "2:cjc133_1371"
    INDEX 01 01:34:54
  TRACK 50 AUDIO
    TITLE "2:cjc133_1372"
    INDEX 01 01:37:46
  TRACK 51 AUDIO
    TITLE "0:"
    INDEX 01 01:39:45
  TRACK 52 AUDIO
    TITLE "2:cjc133_1373"
    INDEX 01 01:40:23
  TRACK 53 AUDIO
    TITLE "2:cjc133_1374"
    INDEX 01 01:42:31
  TRACK 54 AUDIO
    TITLE "2:cjc133_1375"
    INDEX 01 01:46:33
  TRACK 55 AUDIO
    TITLE "0:"
    INDEX 01 01:49:41
  TRACK 56 AUDIO
    TITLE "2:cjc133_1376"
    INDEX 01 01:50:17
  TRACK 57 AUDIO
    TITLE "2:cjc133_1377"
    INDEX 01 01:51:70
  TRACK 58 AUDIO
    TITLE "2:cjc133_1378"
    INDEX 01 01:55:63
  TRACK 59 AUDIO
    TITLE "0:"
    INDEX 01 01:58:66
  TRACK 60 AUDIO
    TITLE "2:cjc133_1379"
    INDEX 01 01:59:44
  TRACK 61 AUDIO
    TITLE "2:cjc133_1380"
    INDEX 01 02:00:57
  TRACK 62 AUDIO
    TITLE "2:cjc133_1381"
    INDEX 01 02:04:19
  TRACK 63 AUDIO
    TITLE "0:"
    INDEX 01 02:06:73
